<?xml version="1.0" encoding="UTF-8"?>
<svg id="Capa_1" data-name="Capa 1" xmlns="http://www.w3.org/2000/svg" viewBox="0 0 1211.62 427.63">
  <defs>
    <style>
      .cls-1 {
        fill: #1b418c;
      }
    </style>
  </defs>
  <path class="cls-1" d="m353.5,213.78c0,21.32-.03,42.63.05,63.95,0,2.04-.64,3.12-2.4,4.13-37.12,21.33-74.2,42.72-111.27,64.13-1.23.71-2.14.94-3.51.15-37.38-21.62-74.8-43.17-112.17-64.81-.82-.48-1.63-1.81-1.63-2.74-.08-43.19-.05-86.38-.12-129.58,0-1.81.95-2.39,2.18-3.1,33.71-19.42,67.4-38.85,101.1-58.29,3.39-1.95,6.8-3.85,10.13-5.9,1.5-.93,2.64-.98,4.26-.04,35.76,20.7,71.51,41.43,107.43,61.85,4.54,2.58,6.18,5.25,6.08,10.49-.36,19.91-.14,39.84-.14,59.76Zm-138.04,9.74v-56.28c.57-.08.93-.18,1.29-.18,16.96-.01,33.92,0,50.88-.05,1.63,0,2.16.65,2.64,2.13,3.7,11.14,15.07,17.64,26.26,15.12,10.81-2.43,18.18-12.11,17.74-23.3-.41-10.45-8.77-19.55-19.37-21.09-10.53-1.54-20.96,4.72-24.36,14.93-.8,2.41-2,2.8-4.2,2.8-19.01-.07-38.02-.04-57.03-.04h-3.62v65.97c-5.02,0-9.67-.1-14.32.05-2.07.07-3.07-.44-3.76-2.58-3.08-9.41-11.52-15.34-21.39-15.34-11.29,0-20.78,8.28-22.36,19.5-1.51,10.77,5.33,21.31,15.95,24.56,10.59,3.24,22.48-1.79,26.73-12.09,1.63-3.96,3.56-5.09,7.47-4.67,3.13.33,6.33.05,9.5.08.7,0,1.4.16,2.33.28v59.34c2.28,0,4.32-.15,6.33.04,2.47.23,3.16-.66,3.14-3.13-.1-17.69-.06-35.38-.06-53.06,0-1.08,0-2.16,0-3.33,1.12-.06,1.85-.14,2.58-.14,6.33,0,12.65,0,19.02,0,.29.76.54,1.35.73,1.96,2.96,9.55,12.76,16.75,24,15.5,9.36-1.05,17.42-8.05,19.54-17.4,2.14-9.46-2.33-19.68-10.66-24.39-12.83-7.25-28.05-1.36-32.91,12.67-.28.82-1.09,2.06-1.67,2.08-6.77.15-13.55.09-20.42.09Z"/>
  <path class="cls-1" d="m1069.49,148.81h19.08v133.7h-18.97v-9.61c-1.91,1.67-3.21,2.96-4.66,4.07-14.98,11.43-36.31,8.11-47.12-7.34-2.98-4.25-3.98-9.21-4.5-14.21-1.45-13.82-1.51-27.67,0-41.49,1.27-11.6,6.87-20.56,17.8-25.09,11.83-4.9,23.32-3.89,33.63,4.39,1.43,1.15,2.86,2.31,4.76,3.83v-48.25Zm-38.28,86.61c.66,5.05.92,10.85,2.25,16.4,3.08,12.8,20.59,17.48,30.04,8.24,3.07-3,4.69-6.96,4.96-10.98.59-8.77,1.22-17.66.43-26.37-1.03-11.32-5.98-16.36-15.85-17.29-10.76-1.02-17.77,2.44-20.1,14.06-.99,4.98-1.13,10.12-1.74,15.94Z"/>
  <path class="cls-1" d="m459.82,282.58h-20.06v-133.66h85.18v18.87c-1.09,0-2.16,0-3.24,0-19.57,0-39.13.05-58.7-.06-2.65-.02-3.27.82-3.24,3.32.12,11.08.05,22.15.06,33.23,0,.91.07,1.82.13,3.01h44.66v18.04h-3.1c-12.86,0-25.72.06-38.57-.05-2.43-.02-3.18.61-3.17,3.11.11,16.85.06,33.7.06,50.54v3.66Z"/>
  <path class="cls-1" d="m573.86,274.24c-7.34,9.8-17.4,9.87-27.43,9.37-8.48-.42-16.24-3.08-22.34-9.43-8.19-8.53-9.87-18.61-6.22-29.45,3.58-10.64,11.67-16.65,22.64-17.67,9.8-.91,19.71-.52,29.58-.7,1.1-.02,2.21,0,3.48,0,0-4.53.47-8.92-.13-13.16-.66-4.67-4.46-6.9-8.75-7.97-6.14-1.53-12.35-1.34-18.57-.37-4.31.67-7.51,3.02-9.97,6.66-5.1-3.88-9.96-7.59-15.02-11.44,3.71-5.2,8.43-8.99,14.21-10.98,14.48-4.98,28.95-4.33,43.03,1.63,9.13,3.87,13.43,11.5,14.34,21.02.54,5.63.49,11.33.51,17,.06,16.85.02,33.7.02,50.54,0,1.01,0,2.02,0,3.23h-19.38v-8.27Zm.24-31.9c-8.85,0-17.02-.16-25.17.09-2.9.09-5.91.83-8.63,1.88-3.77,1.46-5.77,4.45-5.82,8.67-.06,5.78,3.67,10.53,10.12,11.83,6.98,1.4,14.03,1.21,21.02-.41,4.31-1,6.93-3.71,7.48-7.97.59-4.57.67-9.21,1-14.09Z"/>
  <path class="cls-1" d="m933.02,242.36c-1.01,8.14,3.18,16.71,10.55,20.36,12.25,6.06,23.07,2.73,32.89-6.22,4.52,3.85,9.02,7.69,13.93,11.87-1.98,1.81-3.67,3.46-5.48,4.98-16.52,13.87-42.23,14.06-57.86.21-7.18-6.36-10.7-14.93-12.35-24.15-2.39-13.37-1.95-26.63,3-39.51,10.2-26.55,41.71-29.56,59.57-15.9,9.43,7.22,14.05,16.87,14.72,28.52.32,5.57.16,11.16.43,16.73.12,2.46-.63,3.16-3.12,3.15-17.61-.1-35.21-.06-52.82-.06h-3.45Zm-.16-16.23h39.95c.44-12.86-7.81-22.11-19.84-21.98-11.55.12-19.58,6.59-20.11,21.98Z"/>
  <path class="cls-1" d="m748.98,232.67c.52-4.69.78-11.42,2.1-17.94,3.17-15.7,17.35-27.62,33.39-28.52,8.65-.49,17.2.03,24.76,4.91,10.69,6.9,17.22,16.47,18.24,29.41.9,11.42,1.18,22.83-.96,34.17-2.76,14.58-16.48,27.02-31.24,28.64-9.3,1.02-18.12.05-26.41-4.66-11.85-6.73-17.67-17.14-18.93-30.37-.43-4.53-.56-9.08-.94-15.63Zm59.93,2.15c-.28-4.4-.34-8.69-.85-12.92-1.22-10.03-8.8-16.56-19.07-16.69-10.23-.12-18.48,6.33-19.44,16.23-.78,8.09-.85,16.32-.42,24.44.36,6.81,3.17,12.68,9.73,16.2,10.62,5.7,27.49,1.4,29.21-14.32.47-4.33.58-8.7.85-12.94Z"/>
  <path class="cls-1" d="m674.15,215.31c-.74-.83-1.33-1.54-1.97-2.2-7.67-8.02-16.97-9.44-27.18-6.38-6.35,1.9-10.43,6.47-12.51,12.59-3.52,10.35-3.58,20.85-.05,31.21,2.93,8.58,9.98,13.37,19.02,13.91,9.21.55,16.85-2.24,22.66-9.84,4.76,4.24,9.33,8.3,14.33,12.75-2.52,2.3-4.71,4.52-7.12,6.48-20.29,16.5-50.74,11.84-63.93-9.79-4.16-6.82-5.82-14.45-6.47-22.29-.94-11.26-.22-22.43,4.83-32.72,7.1-14.46,19.27-21.77,35.16-22.85,13.95-.95,25.74,3.9,35.26,14.16.63.67,1.22,1.38,2.09,2.38-4.72,4.21-9.33,8.33-14.12,12.6Z"/>
  <path class="cls-1" d="m693.18,201.82v-14.54h9.6v-28.9h19.1v28.78h13.9v14.58h-13.66c-.07,1.27-.15,2.17-.15,3.07,0,17.31,0,34.61,0,51.92,0,5.95,1.72,7.67,7.6,7.69,2.02,0,4.05,0,6.22,0v18.13c-9.37.35-18.8,1.21-26.44-6.09-4.59-4.38-6.5-9.85-6.5-16.07-.02-18.24-.02-36.47-.03-54.71q0-3.87-3.96-3.87c-1.84,0-3.67,0-5.67,0Z"/>
  <path class="cls-1" d="m912.71,193.45c-4.72,5.6-9.26,10.98-13.87,16.45-1.57-.92-2.9-1.75-4.28-2.48-11.48-6.09-25.35,1.19-26.73,14.05-.27,2.49-.43,5-.43,7.5-.04,16.75-.02,33.5-.02,50.24v3.28h-18.92v-95.11h18.82v10.4c7.83-8.95,17.06-12.45,27.91-11.62,6.46.5,12.27,2.78,17.52,7.28Z"/>
  <path class="cls-1" d="m291.67,149.22c7.21-.01,13.05,5.69,13.12,12.81.07,7.2-5.85,13.24-13.03,13.31-7.08.06-13.2-6.08-13.17-13.21.04-7.1,5.91-12.89,13.07-12.91Z"/>
  <path class="cls-1" d="m259.03,215.13c7.18,0,13.04,5.7,13.16,12.82.12,7.07-5.91,13.19-13.1,13.28-7.13.09-13.08-5.94-13.05-13.22.03-7.2,5.75-12.87,12.99-12.88Z"/>
  <path class="cls-1" d="m166.25,215.13c7.18-.01,13.03,5.7,13.15,12.83.12,7.06-5.92,13.17-13.11,13.27-6.95.1-13.01-5.91-13.06-12.95-.05-7.34,5.69-13.14,13.02-13.15Z"/>
</svg>