<svg width="32" height="32" viewBox="0 0 32 32" fill="none" xmlns="http://www.w3.org/2000/svg">
<rect x="32" width="32" height="32" rx="16" transform="rotate(90 32 0)" fill="#0043FF"/>
<path fill-rule="evenodd" clip-rule="evenodd" d="M24.6134 16.8131C25.0276 16.8131 25.3634 16.4773 25.3634 16.0631C25.3634 15.6489 25.0276 15.3131 24.6134 15.3131L16.8132 15.3131L16.8132 7.51294C16.8132 7.09873 16.4774 6.76294 16.0632 6.76294C15.649 6.76294 15.3132 7.09873 15.3132 7.51294L15.3132 15.3131L7.51308 15.3131C7.09887 15.3131 6.76308 15.6489 6.76308 16.0631C6.76308 16.4773 7.09887 16.8131 7.51308 16.8131L15.3132 16.8131L15.3132 24.6132C15.3132 25.0274 15.649 25.3632 16.0632 25.3632C16.4774 25.3632 16.8132 25.0274 16.8132 24.6132L16.8132 16.8131L24.6134 16.8131Z" fill="white"/>
</svg>
