<svg width="220" height="253" viewBox="0 0 220 253" fill="none" xmlns="http://www.w3.org/2000/svg">
<path d="M219.873 126.467C219.873 146.771 219.843 167.074 219.919 187.377C219.919 189.328 219.321 190.341 217.633 191.309C182.307 211.627 147.027 231.992 111.747 252.387C110.581 253.063 109.722 253.278 108.402 252.525C72.8308 231.93 37.2134 211.412 1.65734 190.802C0.874706 190.356 0.10742 189.082 0.10742 188.191C0.0460371 147.047 0.0613829 105.903 0 64.7746C0 63.0392 0.905397 62.5017 2.07167 61.8259C34.1442 43.335 66.2168 24.8286 98.2893 6.30697C101.512 4.44866 104.765 2.63642 107.926 0.68596C109.354 -0.189442 110.443 -0.250872 111.978 0.639888C146.014 20.3595 180.036 40.0944 214.211 59.5529C218.538 62.0102 220.088 64.5596 219.996 69.551C219.659 88.518 219.858 107.5 219.858 126.467H219.873ZM88.5141 135.744V82.1291C89.0512 82.0523 89.3888 81.9602 89.7417 81.9602C105.885 81.9602 122.029 81.9602 138.157 81.9141C139.707 81.9141 140.214 82.5438 140.674 83.9413C144.188 94.5537 155.007 100.743 165.657 98.3471C175.954 96.028 182.952 86.8133 182.537 76.1549C182.138 66.2029 174.189 57.541 164.107 56.0667C154.086 54.6077 144.158 60.5512 140.92 70.2881C140.152 72.5918 139.017 72.9604 136.93 72.9451C118.837 72.8836 100.745 72.9143 82.652 72.9143H79.1992V135.744C74.4267 135.744 69.9918 135.652 65.5722 135.79C63.608 135.851 62.6566 135.36 61.9967 133.332C59.0657 124.363 51.0398 118.712 41.6483 118.727C30.9063 118.727 21.8676 126.606 20.3791 137.295C18.9366 147.554 25.4585 157.583 35.556 160.685C45.6382 163.772 56.9479 158.98 60.9992 149.167C62.5491 145.404 64.3906 144.329 68.1043 144.713C71.0814 145.035 74.1351 144.759 77.1429 144.789C77.8028 144.789 78.478 144.943 79.3527 145.051V201.568C81.5164 201.568 83.4653 201.43 85.3682 201.598C87.7161 201.829 88.376 200.969 88.3606 198.619C88.2685 181.771 88.3146 164.924 88.3146 148.076C88.3146 147.047 88.3146 146.018 88.3146 144.897C89.3888 144.836 90.0793 144.759 90.7699 144.759C96.7854 144.759 102.816 144.759 108.863 144.759C109.139 145.481 109.384 146.049 109.553 146.617C112.361 155.709 121.707 162.574 132.403 161.376C141.303 160.378 148.976 153.712 151.002 144.805C153.043 135.79 148.792 126.068 140.858 121.584C128.643 114.688 114.157 120.294 109.538 133.655C109.261 134.438 108.51 135.621 107.942 135.636C101.497 135.774 95.0514 135.728 88.5141 135.728V135.744Z" fill="#191E3E"/>
<path d="M161.038 64.9745C154.224 64.9745 148.639 70.5034 148.593 77.2608C148.562 84.0491 154.378 89.9004 161.115 89.839C167.943 89.7776 173.575 84.0183 173.514 77.1687C173.453 70.3805 167.897 64.9591 161.023 64.9591L161.038 64.9745ZM129.978 127.742C123.073 127.742 117.64 133.148 117.61 140.013C117.579 146.955 123.241 152.699 130.024 152.607C136.868 152.515 142.608 146.694 142.5 139.952C142.378 133.164 136.807 127.727 129.978 127.742ZM41.679 127.742C34.712 127.742 29.2489 133.287 29.295 140.274C29.341 146.986 35.111 152.699 41.725 152.607C48.5692 152.515 54.3085 146.694 54.2011 139.967C54.0936 133.179 48.5078 127.742 41.679 127.742Z" fill="#191E3E"/>
<path d="M161.038 64.9739C167.898 64.9739 173.468 70.3953 173.529 77.1835C173.591 84.0331 167.959 89.7923 161.13 89.8538C154.393 89.9152 148.562 84.0638 148.608 77.2756C148.639 70.5181 154.224 64.9893 161.053 64.9893L161.038 64.9739Z" fill="#191E3E"/>
<path d="M129.978 127.742C136.807 127.742 142.393 133.179 142.5 139.952C142.608 146.679 136.869 152.515 130.024 152.607C123.242 152.699 117.579 146.955 117.61 140.013C117.64 133.148 123.073 127.758 129.978 127.742Z" fill="#191E3E"/>
<path d="M41.679 127.742C48.5078 127.742 54.0783 133.164 54.2011 139.967C54.3085 146.694 48.5692 152.515 41.725 152.607C35.111 152.699 29.341 146.97 29.295 140.274C29.2489 133.286 34.712 127.758 41.679 127.742Z" fill="#191E3E"/>
</svg>
