<svg width="929" height="261" viewBox="0 0 929 261" fill="none" xmlns="http://www.w3.org/2000/svg">
<path d="M910.25 64.1463H929V195.523H910.349V186.082C908.464 187.718 907.199 189.006 905.761 190.072C891.028 201.296 870.046 198.05 859.406 182.861C856.48 178.673 855.488 173.817 854.967 168.886C853.528 155.307 853.479 141.704 854.967 128.125C856.207 116.727 861.713 107.93 872.477 103.47C884.109 98.6382 895.418 99.6541 905.562 107.782C906.976 108.921 908.39 110.061 910.25 111.548V64.1215V64.1463ZM872.601 149.261C873.246 154.217 873.494 159.916 874.808 165.367C877.834 177.93 895.046 182.539 904.347 173.47C907.373 170.521 908.96 166.631 909.233 162.691C909.803 154.068 910.448 145.346 909.655 136.773C908.638 125.647 903.777 120.691 894.054 119.774C883.464 118.783 876.569 122.178 874.287 133.601C873.32 138.482 873.171 143.537 872.576 149.261H872.601Z" fill="#191E3E"/>
<path d="M310.592 195.598H290.85V64.2707H374.631V82.8052C373.564 82.8052 372.498 82.8052 371.456 82.8052C352.21 82.8052 332.964 82.8547 313.717 82.7556C311.113 82.7556 310.493 83.5485 310.543 86.0264C310.667 96.9042 310.592 107.807 310.592 118.685C310.592 119.577 310.667 120.469 310.716 121.633H354.64V139.375H351.59C338.941 139.375 326.292 139.424 313.643 139.325C311.262 139.325 310.518 139.92 310.518 142.373C310.617 158.925 310.568 175.477 310.568 192.03V195.623L310.592 195.598Z" fill="#191E3E"/>
<path d="M422.771 187.395C415.554 197.034 405.658 197.084 395.787 196.613C387.453 196.192 379.814 193.59 373.812 187.346C365.752 178.971 364.09 169.059 367.686 158.404C371.208 147.948 379.169 142.05 389.958 141.035C399.581 140.142 409.353 140.514 419.051 140.341C420.142 140.341 421.233 140.341 422.473 140.341C422.473 135.881 422.944 131.569 422.349 127.406C421.704 122.822 417.959 120.617 413.743 119.576C407.716 118.065 401.59 118.263 395.489 119.204C391.248 119.874 388.098 122.178 385.692 125.746C380.682 121.93 375.896 118.288 370.91 114.497C374.556 109.392 379.194 105.651 384.899 103.718C399.135 98.8364 413.371 99.4559 427.21 105.328C436.189 109.12 440.43 116.627 441.323 125.994C441.843 131.519 441.819 137.119 441.819 142.695C441.868 159.247 441.819 175.799 441.819 192.351C441.819 193.342 441.819 194.333 441.819 195.523H422.746V187.395H422.771ZM422.994 156.05C414.289 156.05 406.253 155.902 398.242 156.125C395.39 156.224 392.438 156.942 389.76 157.983C386.039 159.42 384.08 162.369 384.031 166.507C383.981 172.181 387.652 176.864 393.976 178.128C400.846 179.516 407.766 179.318 414.636 177.732C418.877 176.741 421.456 174.089 422.002 169.902C422.597 165.417 422.672 160.857 422.994 156.05Z" fill="#191E3E"/>
<path d="M776.022 156.076C775.03 164.08 779.147 172.504 786.414 176.072C798.468 182.019 809.108 178.749 818.756 169.977C823.195 173.768 827.635 177.534 832.446 181.648C830.487 183.432 828.825 185.042 827.064 186.554C810.819 200.182 785.521 200.38 770.144 186.752C763.076 180.508 759.628 172.083 757.992 163.014C755.635 149.881 756.082 136.848 760.943 124.186C770.963 98.0939 801.965 95.1453 819.525 108.575C828.801 115.662 833.339 125.152 834.009 136.6C834.331 142.076 834.158 147.577 834.431 153.028C834.555 155.432 833.811 156.126 831.355 156.126C814.044 156.026 796.732 156.076 779.395 156.076H775.998H776.022ZM775.874 140.119H815.16C815.581 127.481 807.471 118.388 795.641 118.512C784.281 118.635 776.37 124.979 775.849 140.119H775.874Z" fill="#191E3E"/>
<path d="M595.019 146.56C595.54 141.952 595.788 135.336 597.078 128.943C600.203 113.506 614.141 101.81 629.915 100.918C638.422 100.447 646.83 100.943 654.271 105.75C664.787 112.539 671.21 121.93 672.202 134.642C673.095 145.867 673.368 157.091 671.26 168.217C668.556 182.539 655.04 194.78 640.53 196.366C631.379 197.382 622.723 196.415 614.563 191.782C602.906 185.166 597.177 174.932 595.937 161.948C595.515 157.488 595.391 153.028 595.019 146.585V146.56ZM653.973 148.667C653.7 144.33 653.626 140.118 653.13 135.98C651.939 126.118 644.474 119.7 634.38 119.576C624.31 119.453 616.2 125.796 615.257 135.534C614.489 143.488 614.414 151.566 614.836 159.544C615.183 166.235 617.961 172.008 624.409 175.452C634.851 181.052 651.443 176.84 653.13 161.378C653.601 157.116 653.7 152.829 653.973 148.667Z" fill="#191E3E"/>
<path d="M521.408 129.489C520.663 128.671 520.093 127.977 519.473 127.333C511.933 119.453 502.781 118.066 492.737 121.064C486.487 122.922 482.494 127.432 480.435 133.429C476.988 143.588 476.913 153.92 480.385 164.105C483.262 172.529 490.207 177.237 499.086 177.758C508.139 178.303 515.654 175.552 521.383 168.094C526.07 172.257 530.559 176.246 535.47 180.632C532.99 182.887 530.832 185.067 528.476 187C508.511 203.205 478.575 198.646 465.604 177.386C461.511 170.671 459.874 163.188 459.23 155.482C458.312 144.405 459.006 133.429 463.967 123.319C470.936 109.096 482.915 101.91 498.54 100.869C512.256 99.9277 523.863 104.71 533.213 114.795C533.833 115.464 534.404 116.158 535.272 117.124C530.634 121.262 526.095 125.301 521.383 129.513L521.408 129.489Z" fill="#191E3E"/>
<path d="M540.133 116.232V101.935H549.582V73.5387H568.357V101.836H582.023V116.158H568.581C568.506 117.397 568.432 118.289 568.432 119.181C568.432 136.179 568.432 153.202 568.432 170.2C568.432 176.048 570.118 177.733 575.897 177.758C577.881 177.758 579.89 177.758 582.023 177.758V195.574C572.797 195.921 563.521 196.763 556.006 189.602C551.492 185.291 549.607 179.914 549.607 173.818C549.607 155.903 549.607 137.988 549.582 120.048C549.582 117.521 548.284 116.257 545.688 116.257C543.878 116.257 542.067 116.257 540.108 116.257L540.133 116.232Z" fill="#191E3E"/>
<path d="M756.057 108.006C751.419 113.507 746.955 118.785 742.416 124.162C740.878 123.27 739.564 122.452 738.2 121.733C726.915 115.762 713.274 122.898 711.91 135.535C711.637 137.988 711.488 140.441 711.488 142.919C711.463 159.372 711.488 175.825 711.488 192.303V195.524H692.887V102.059H711.414V112.293C719.102 103.496 728.205 100.052 738.869 100.87C745.219 101.365 750.948 103.595 756.107 108.031L756.057 108.006Z" fill="#191E3E"/>
<path d="M227.259 130.454C227.259 151.392 227.234 172.355 227.308 193.293C227.308 195.3 226.688 196.365 224.952 197.357C188.444 218.319 151.96 239.332 115.502 260.369C114.287 261.063 113.394 261.286 112.054 260.517C75.2982 239.282 38.4923 218.096 1.73612 196.836C0.917665 196.365 0.124009 195.052 0.124009 194.135C0.0496035 151.714 0.0744053 109.268 0 66.8224C0 65.0383 0.942467 64.4684 2.13295 63.7746C35.2929 44.695 68.4281 25.5907 101.588 6.5111C104.911 4.60314 108.285 2.71996 111.558 0.71289C113.046 -0.203921 114.163 -0.25348 115.75 0.663331C150.919 21.0066 186.088 41.3747 221.405 61.4454C225.87 63.9729 227.482 66.5994 227.383 71.7534C227.035 91.3285 227.234 110.904 227.234 130.479L227.259 130.454ZM91.4937 140.019V84.7126C92.0394 84.6383 92.4114 84.5392 92.7586 84.5392C109.45 84.5392 126.117 84.5392 142.809 84.4896C144.421 84.4896 144.942 85.1339 145.413 86.571C149.059 97.5232 160.219 103.916 171.231 101.438C181.871 99.0595 189.113 89.5445 188.667 78.5427C188.27 68.2844 180.036 59.3393 169.619 57.803C159.252 56.2915 149.009 62.4366 145.661 72.472C144.867 74.8507 143.701 75.2224 141.519 75.2224C122.818 75.148 104.118 75.1728 85.4173 75.1728H81.8458V139.994C76.9103 139.994 72.322 139.895 67.7584 140.043C65.7247 140.118 64.7326 139.597 64.063 137.516C61.0372 128.274 52.7286 122.451 43.0311 122.451C31.9199 122.451 22.5944 130.578 21.0319 141.604C19.5438 152.185 26.2651 162.542 36.7314 165.739C47.1482 168.935 58.8298 163.98 63.0213 153.845C64.6334 149.955 66.5183 148.84 70.3626 149.261C73.438 149.583 76.5879 149.311 79.7129 149.335C80.4073 149.335 81.1018 149.509 81.9947 149.608V207.912C84.2268 207.912 86.2357 207.764 88.2199 207.962C90.6505 208.185 91.3201 207.318 91.3201 204.889C91.2209 187.519 91.2705 170.125 91.2705 152.755C91.2705 151.689 91.2705 150.624 91.2705 149.484C92.3866 149.41 93.081 149.335 93.8003 149.335C100.026 149.335 106.251 149.335 112.501 149.335C112.774 150.079 113.046 150.673 113.22 151.268C116.122 160.659 125.77 167.721 136.831 166.507C146.033 165.466 153.969 158.603 156.053 149.41C158.161 140.118 153.771 130.082 145.562 125.449C132.937 118.337 117.957 124.111 113.195 137.912C112.922 138.705 112.129 139.944 111.558 139.944C104.887 140.093 98.2398 140.043 91.4689 140.043L91.4937 140.019Z" fill="#191E3E"/>
<path d="M166.445 67.0213C159.401 67.0213 153.622 72.7204 153.597 79.708C153.573 86.7204 159.575 92.7416 166.544 92.692C173.612 92.6425 179.416 86.6956 179.366 79.6089C179.292 72.6213 173.563 66.9966 166.47 67.0213H166.445ZM134.351 131.793C127.233 131.793 121.603 137.368 121.578 144.455C121.554 151.616 127.407 157.538 134.426 157.439C141.494 157.34 147.422 151.343 147.323 144.38C147.199 137.368 141.445 131.768 134.376 131.768L134.351 131.793ZM43.0808 131.793C35.8635 131.793 30.2335 137.517 30.2831 144.727C30.3327 151.641 36.2851 157.563 43.1304 157.464C50.1989 157.364 56.1265 151.343 56.0273 144.43C55.9033 137.418 50.1493 131.818 43.0808 131.818V131.793Z" fill="#191E3E"/>
<path d="M166.445 67.0212C173.538 67.0212 179.292 72.6212 179.342 79.6088C179.416 86.6707 173.588 92.6176 166.519 92.692C159.55 92.7415 153.523 86.7203 153.573 79.7079C153.597 72.7451 159.376 67.046 166.42 67.0212H166.445Z" fill="#191E3E"/>
<path d="M134.326 131.793C141.395 131.793 147.149 137.393 147.273 144.405C147.397 151.343 141.444 157.365 134.376 157.464C127.357 157.563 121.504 151.616 121.529 144.48C121.553 137.393 127.183 131.843 134.301 131.818L134.326 131.793Z" fill="#191E3E"/>
<path d="M43.0808 131.792C50.1493 131.792 55.9033 137.392 56.0273 144.404C56.1513 151.342 50.1989 157.339 43.1304 157.438C36.2851 157.537 30.3327 151.64 30.2831 144.702C30.2335 137.491 35.8883 131.792 43.0808 131.767V131.792Z" fill="#191E3E"/>
</svg>
