<svg width="73" height="84" viewBox="0 0 73 84" fill="none" xmlns="http://www.w3.org/2000/svg">
<path d="M72.8989 41.9852C72.8989 48.7239 72.8909 55.4705 72.9148 62.2092C72.9148 62.8551 72.7159 63.1981 72.159 63.517C60.4481 70.2637 48.7451 77.0263 37.0501 83.7968C36.6603 84.0201 36.3739 84.0919 35.9443 83.8447C24.1538 77.0103 12.3474 70.1919 0.556905 63.3496C0.294364 63.198 0.0397789 62.7754 0.0397789 62.4803C0.0159116 48.8276 0.0238674 35.1668 0 21.5061C0 20.9319 0.30232 20.7485 0.684198 20.5252C11.3211 14.3846 21.95 8.23608 32.5869 2.09553C33.653 1.48147 34.735 0.87539 35.7851 0.229436C36.2625 -0.0656299 36.6205 -0.0815798 37.1297 0.213486C48.411 6.76075 59.6923 13.316 71.0213 19.7755C72.4534 20.589 72.9705 21.4343 72.9387 23.093C72.8273 29.3931 72.8909 35.6931 72.8909 41.9932L72.8989 41.9852ZM29.3489 45.0635V27.2638C29.5239 27.2399 29.6433 27.208 29.7547 27.208C35.1089 27.208 40.4552 27.208 45.8094 27.1921C46.3266 27.1921 46.4936 27.3994 46.6448 27.8619C47.8143 31.3868 51.3944 33.4443 54.9268 32.6468C58.3398 31.8812 60.6629 28.8189 60.5197 25.2781C60.3924 21.9766 57.7511 19.0977 54.4096 18.6033C51.0841 18.1168 47.7984 20.0945 46.7243 23.3243C46.4698 24.0899 46.0958 24.2095 45.3957 24.2095C39.3971 24.1856 33.3984 24.1936 27.3997 24.1936H26.2541V45.0555C24.6709 45.0555 23.1991 45.0236 21.7352 45.0714C21.0828 45.0954 20.7646 44.9279 20.5498 44.258C19.5792 41.2834 16.914 39.4094 13.8033 39.4094C10.2391 39.4094 7.24772 42.0251 6.74651 45.5739C6.26916 48.9791 8.42518 52.3125 11.7825 53.3413C15.124 54.37 18.8711 52.7751 20.2157 49.5134C20.7328 48.2613 21.3374 47.9025 22.5706 48.0381C23.5571 48.1417 24.5675 48.054 25.5699 48.062C25.7927 48.062 26.0154 48.1178 26.3018 48.1497V66.9143C27.0179 66.9143 27.6623 66.8664 28.2987 66.9302C29.0784 67.002 29.2932 66.7229 29.2932 65.9414C29.2614 60.3511 29.2773 54.7528 29.2773 49.1625C29.2773 48.8196 29.2773 48.4767 29.2773 48.1098C29.6353 48.0859 29.8581 48.062 30.0888 48.062C32.0857 48.062 34.0826 48.062 36.0875 48.062C36.175 48.3012 36.2625 48.4926 36.3182 48.684C37.249 51.7064 40.3438 53.9792 43.8921 53.5885C46.8437 53.2535 49.3895 51.0445 50.0578 48.0859C50.7341 45.0954 49.3259 41.8656 46.6925 40.3743C42.643 38.0856 37.8377 39.9437 36.3102 44.3856C36.2227 44.6408 35.9681 45.0395 35.7851 45.0395C33.645 45.0874 31.5129 45.0714 29.3409 45.0714L29.3489 45.0635Z" fill="white"/>
<path d="M53.3913 21.5701C51.1319 21.5701 49.2782 23.4043 49.2702 25.6532C49.2623 27.91 51.1876 29.8479 53.4231 29.8319C55.6905 29.816 57.5522 27.902 57.5363 25.6213C57.5124 23.3724 55.6746 21.5621 53.3993 21.5701H53.3913ZM43.0965 42.4161C40.8132 42.4161 39.0072 44.2104 38.9993 46.4912C38.9913 48.7959 40.8689 50.7019 43.1204 50.67C45.3878 50.6381 47.2892 48.7082 47.2574 46.4673C47.2176 44.2104 45.3719 42.4081 43.1045 42.4081L43.0965 42.4161ZM13.8192 42.4161C11.5041 42.4161 9.69812 44.2583 9.71403 46.5789C9.72994 48.8039 11.6393 50.7098 13.8351 50.6779C16.1025 50.646 18.004 48.7082 17.9721 46.4832C17.9324 44.2264 16.0866 42.4241 13.8192 42.4241V42.4161Z" fill="white"/>
<path d="M53.3913 21.5701C55.6667 21.5701 57.5124 23.3724 57.5283 25.6212C57.5522 27.894 55.6826 29.808 53.4152 29.8319C51.1796 29.8479 49.2463 27.91 49.2622 25.6531C49.2702 23.4122 51.1239 21.578 53.3833 21.5701H53.3913Z" fill="white"/>
<path d="M43.0885 42.4161C45.3559 42.4161 47.2016 44.2184 47.2414 46.4753C47.2812 48.7082 45.3718 50.6461 43.1044 50.678C40.8529 50.7099 38.9753 48.7959 38.9833 46.4992C38.9913 44.2184 40.7972 42.4321 43.0805 42.4241L43.0885 42.4161Z" fill="white"/>
<path d="M13.8192 42.4158C16.0866 42.4158 17.9324 44.2181 17.9721 46.475C18.0119 48.7079 16.1025 50.6378 13.8351 50.6697C11.6393 50.7016 9.72994 48.8036 9.71403 46.5707C9.69812 44.25 11.512 42.4158 13.8192 42.4078V42.4158Z" fill="white"/>
</svg>
