<svg width="151" height="174" viewBox="0 0 151 174" fill="none" xmlns="http://www.w3.org/2000/svg">
<path d="M150.642 86.7411C150.642 100.62 150.621 114.499 150.674 128.378C150.674 129.711 150.264 130.404 149.11 131.066C124.951 144.955 100.823 158.876 76.695 172.818C75.8974 173.28 75.3097 173.427 74.4072 172.912C50.08 158.834 25.7214 144.808 1.40469 130.719C0.869449 130.415 0.344704 129.543 0.344704 128.934C0.302725 100.809 0.31322 72.6837 0.27124 44.5689C0.27124 43.3826 0.890439 43.0151 1.68805 42.5532C23.6224 29.9131 45.5567 17.2624 67.491 4.60132C69.6949 3.33101 71.9199 2.09219 74.0818 0.758889C75.0578 0.160478 75.803 0.118486 76.8525 0.727395C100.13 14.2074 123.397 27.6979 146.769 40.9994C149.729 42.6792 150.789 44.4219 150.726 47.8339C150.495 60.7995 150.632 73.7755 150.632 86.7411H150.642ZM60.8058 93.0822V56.4321C61.1731 56.3796 61.404 56.3166 61.6454 56.3166C72.686 56.3166 83.7266 56.3166 94.7567 56.2851C95.8167 56.2851 96.1631 56.7156 96.4779 57.6709C98.8812 64.9253 106.28 69.1562 113.564 67.5185C120.606 65.9332 125.391 59.6341 125.108 52.3482C124.835 45.5452 119.399 39.6241 112.504 38.6163C105.65 37.6189 98.8603 41.6818 96.6458 48.3378C96.1211 49.9126 95.3445 50.1645 93.9172 50.154C81.5437 50.1121 69.1702 50.133 56.7967 50.133H54.4354V93.0822C51.1715 93.0822 48.1384 93.0192 45.1159 93.1137C43.7726 93.1557 43.1219 92.8197 42.6706 91.4339C40.6661 85.3028 35.1772 81.4394 28.7544 81.4499C21.408 81.4499 15.2265 86.8356 14.2085 94.1425C13.2219 101.155 17.6823 108.011 24.5879 110.132C31.483 112.242 39.2178 108.966 41.9884 102.258C43.0484 99.6857 44.3078 98.9508 46.8476 99.2133C48.8836 99.4337 50.9721 99.2448 53.0291 99.2657C53.4803 99.2657 53.9421 99.3707 54.5403 99.4442V138.078C56.0201 138.078 57.353 137.984 58.6543 138.099C60.26 138.257 60.7113 137.669 60.7008 136.063C60.6379 124.546 60.6693 113.029 60.6693 101.512C60.6693 100.809 60.6693 100.106 60.6693 99.3392C61.404 99.2972 61.8763 99.2448 62.3485 99.2448C66.4625 99.2448 70.587 99.2448 74.722 99.2448C74.9109 99.7382 75.0788 100.127 75.1943 100.515C77.1148 106.73 83.5062 111.423 90.8212 110.604C96.9082 109.922 102.156 105.365 103.541 99.2762C104.937 93.1137 102.03 86.4681 96.6039 83.4026C88.2499 78.6888 78.3427 82.5207 75.1838 91.6544C74.9949 92.1898 74.4806 92.9982 74.0923 93.0087C69.6844 93.1032 65.2766 93.0717 60.8058 93.0717V93.0822Z" fill="#191E3E"/>
<path d="M110.405 44.7055C105.745 44.7055 101.925 48.4849 101.893 53.1043C101.872 57.7446 105.85 61.7445 110.457 61.7025C115.127 61.6605 118.979 57.7236 118.937 53.0413C118.895 48.401 115.096 44.695 110.394 44.695L110.405 44.7055ZM89.1628 87.6126C84.4401 87.6126 80.725 91.3081 80.704 96.0009C80.683 100.746 84.5556 104.673 89.1943 104.61C93.8751 104.547 97.8001 100.568 97.7267 95.9589C97.6427 91.3186 93.8331 87.6021 89.1628 87.6126ZM28.7752 87.6126C24.0106 87.6126 20.2744 91.4026 20.3059 96.1794C20.3373 100.767 24.2834 104.673 28.8067 104.61C33.4874 104.547 37.4125 100.568 37.3391 95.9694C37.2656 91.3291 33.4455 87.6126 28.7752 87.6126Z" fill="#191E3E"/>
<path d="M110.405 44.7051C115.096 44.7051 118.905 48.4111 118.947 53.0514C118.989 57.7337 115.138 61.6706 110.468 61.7126C105.86 61.7546 101.872 57.7547 101.904 53.1144C101.925 48.495 105.745 44.7156 110.415 44.7156L110.405 44.7051Z" fill="#191E3E"/>
<path d="M89.1631 87.6125C93.8333 87.6125 97.6534 91.3289 97.7269 95.9587C97.8004 100.557 93.8753 104.546 89.1946 104.609C84.5558 104.672 80.6832 100.746 80.7042 96.0007C80.7252 91.3079 84.4404 87.623 89.1631 87.6125Z" fill="#191E3E"/>
<path d="M28.7752 87.6125C33.4455 87.6125 37.2551 91.3184 37.3391 95.9692C37.4125 100.568 33.4874 104.546 28.8067 104.609C24.2834 104.672 20.3373 100.757 20.3059 96.1792C20.2744 91.4024 24.0106 87.623 28.7752 87.6125Z" fill="#191E3E"/>
</svg>
