<svg xmlns="http://www.w3.org/2000/svg" width="323" height="96" viewBox="0 0 323 96" fill="none">
<g filter="url(#filter0_d_71_8235)">
<rect x="20" y="29" width="270" height="40" rx="4" fill="white" shape-rendering="crispEdges"/>
<rect x="69" y="30" width="38" height="38" rx="1" fill="white"/>
<path fill-rule="evenodd" clip-rule="evenodd" d="M96.208 49.1944C96.208 48.5881 96.1536 48.0052 96.0525 47.4456H88V50.7529H92.6015C92.4032 51.8216 91.8009 52.7271 90.8953 53.3334V55.4787H93.6585C95.2753 53.9902 96.208 51.7983 96.208 49.1944Z" fill="#0043FF"/>
<path fill-rule="evenodd" clip-rule="evenodd" d="M88 57.55C90.3085 57.55 92.2439 56.7844 93.6585 55.4786L90.8953 53.3333C90.1297 53.8463 89.1504 54.1494 88 54.1494C85.7731 54.1494 83.8882 52.6454 83.2159 50.6245H80.3594V52.8397C81.7663 55.634 84.6577 57.55 88 57.55Z" fill="#4EAF51"/>
<path fill-rule="evenodd" clip-rule="evenodd" d="M83.2159 50.6246C83.0449 50.1116 82.9477 49.5637 82.9477 49.0001C82.9477 48.4366 83.0449 47.8886 83.2159 47.3756V45.1604H80.3594C79.7804 46.3147 79.45 47.6205 79.45 49.0001C79.45 50.3798 79.7804 51.6856 80.3594 52.8399L83.2159 50.6246Z" fill="#FBBC05"/>
<path fill-rule="evenodd" clip-rule="evenodd" d="M88 43.8508C89.2553 43.8508 90.3823 44.2821 91.2684 45.1294L93.7207 42.6771C92.24 41.2974 90.3046 40.4502 88 40.4502C84.6577 40.4502 81.7663 42.3662 80.3594 45.1605L83.2159 47.3757C83.8882 45.3548 85.7731 43.8508 88 43.8508Z" fill="#EA4335"/>
<path d="M113.248 51.4365C113.248 51.2314 113.216 51.0492 113.152 50.8896C113.093 50.7301 112.986 50.5843 112.831 50.4521C112.676 50.32 112.457 50.1924 112.175 50.0693C111.897 49.9417 111.541 49.8118 111.108 49.6797C110.634 49.5339 110.197 49.3721 109.796 49.1943C109.399 49.012 109.053 48.8024 108.757 48.5654C108.461 48.3239 108.23 48.0482 108.066 47.7383C107.902 47.4238 107.82 47.0615 107.82 46.6514C107.82 46.2458 107.905 45.8766 108.073 45.5439C108.246 45.2113 108.49 44.9242 108.805 44.6826C109.124 44.4365 109.5 44.2474 109.933 44.1152C110.366 43.9785 110.844 43.9102 111.368 43.9102C112.106 43.9102 112.742 44.0469 113.275 44.3203C113.813 44.5938 114.226 44.9606 114.513 45.4209C114.804 45.8812 114.95 46.3893 114.95 46.9453H113.248C113.248 46.6172 113.177 46.3278 113.036 46.0771C112.899 45.8219 112.69 45.6214 112.407 45.4756C112.129 45.3298 111.776 45.2568 111.348 45.2568C110.942 45.2568 110.605 45.3184 110.336 45.4414C110.067 45.5645 109.867 45.7308 109.734 45.9404C109.602 46.1501 109.536 46.387 109.536 46.6514C109.536 46.8382 109.579 47.0091 109.666 47.1641C109.753 47.3145 109.885 47.4557 110.062 47.5879C110.24 47.7155 110.464 47.8363 110.732 47.9502C111.001 48.0641 111.318 48.1735 111.683 48.2783C112.234 48.4424 112.715 48.6247 113.125 48.8252C113.535 49.0212 113.877 49.2445 114.15 49.4951C114.424 49.7458 114.629 50.0306 114.766 50.3496C114.902 50.6641 114.971 51.0218 114.971 51.4229C114.971 51.8421 114.886 52.2204 114.718 52.5576C114.549 52.8903 114.308 53.1751 113.993 53.4121C113.683 53.6445 113.31 53.8245 112.872 53.9521C112.439 54.0752 111.956 54.1367 111.423 54.1367C110.944 54.1367 110.473 54.0729 110.008 53.9453C109.548 53.8177 109.128 53.624 108.75 53.3643C108.372 53.0999 108.071 52.7718 107.848 52.3799C107.624 51.9834 107.513 51.5208 107.513 50.9922H109.229C109.229 51.3158 109.283 51.5915 109.393 51.8193C109.507 52.0472 109.664 52.234 109.864 52.3799C110.065 52.5212 110.297 52.626 110.562 52.6943C110.83 52.7627 111.118 52.7969 111.423 52.7969C111.824 52.7969 112.159 52.7399 112.428 52.626C112.701 52.512 112.906 52.3525 113.043 52.1475C113.18 51.9424 113.248 51.7054 113.248 51.4365ZM118.088 46.6035V54H116.434V46.6035H118.088ZM116.324 44.6621C116.324 44.4115 116.406 44.2041 116.57 44.04C116.739 43.8714 116.971 43.7871 117.268 43.7871C117.559 43.7871 117.789 43.8714 117.958 44.04C118.127 44.2041 118.211 44.4115 118.211 44.6621C118.211 44.9082 118.127 45.1133 117.958 45.2773C117.789 45.4414 117.559 45.5234 117.268 45.5234C116.971 45.5234 116.739 45.4414 116.57 45.2773C116.406 45.1133 116.324 44.9082 116.324 44.6621ZM124.63 46.6035H126.127V53.7949C126.127 54.4603 125.986 55.0254 125.703 55.4902C125.421 55.9551 125.026 56.3083 124.521 56.5498C124.015 56.7959 123.429 56.9189 122.764 56.9189C122.481 56.9189 122.167 56.8779 121.82 56.7959C121.479 56.7139 121.146 56.5817 120.822 56.3994C120.503 56.2217 120.237 55.987 120.022 55.6953L120.795 54.7246C121.059 55.0391 121.351 55.2692 121.67 55.415C121.989 55.5609 122.324 55.6338 122.675 55.6338C123.053 55.6338 123.374 55.5632 123.639 55.4219C123.908 55.2852 124.115 55.0824 124.261 54.8135C124.407 54.5446 124.479 54.2165 124.479 53.8291V48.2783L124.63 46.6035ZM119.605 50.3838V50.2402C119.605 49.6797 119.674 49.1693 119.811 48.709C119.947 48.2441 120.143 47.8454 120.398 47.5127C120.654 47.1755 120.964 46.918 121.328 46.7402C121.693 46.5579 122.105 46.4668 122.565 46.4668C123.044 46.4668 123.452 46.5534 123.789 46.7266C124.131 46.8997 124.416 47.1481 124.644 47.4717C124.871 47.7907 125.049 48.1735 125.177 48.6201C125.309 49.0622 125.407 49.5544 125.471 50.0967V50.5547C125.411 51.0833 125.311 51.5664 125.17 52.0039C125.029 52.4414 124.842 52.8197 124.609 53.1387C124.377 53.4577 124.09 53.7038 123.748 53.877C123.411 54.0501 123.012 54.1367 122.552 54.1367C122.101 54.1367 121.693 54.0433 121.328 53.8564C120.968 53.6696 120.658 53.4076 120.398 53.0703C120.143 52.7331 119.947 52.3366 119.811 51.8809C119.674 51.4206 119.605 50.9215 119.605 50.3838ZM121.253 50.2402V50.3838C121.253 50.721 121.285 51.0355 121.349 51.3271C121.417 51.6188 121.52 51.8763 121.656 52.0996C121.798 52.3184 121.975 52.4915 122.189 52.6191C122.408 52.7422 122.666 52.8037 122.962 52.8037C123.349 52.8037 123.666 52.7217 123.912 52.5576C124.163 52.3936 124.354 52.1725 124.486 51.8945C124.623 51.612 124.719 51.2975 124.773 50.9512V49.7139C124.746 49.445 124.689 49.1943 124.603 48.9619C124.521 48.7295 124.409 48.5267 124.268 48.3535C124.126 48.1758 123.949 48.0391 123.734 47.9434C123.52 47.8431 123.267 47.793 122.976 47.793C122.679 47.793 122.422 47.8568 122.203 47.9844C121.984 48.112 121.804 48.2874 121.663 48.5107C121.526 48.734 121.424 48.9938 121.355 49.29C121.287 49.5863 121.253 49.903 121.253 50.2402ZM129.47 48.1826V54H127.822V46.6035H129.374L129.47 48.1826ZM129.176 50.0283L128.643 50.0215C128.647 49.4974 128.72 49.0166 128.861 48.5791C129.007 48.1416 129.208 47.7656 129.463 47.4512C129.723 47.1367 130.033 46.8952 130.393 46.7266C130.753 46.5534 131.154 46.4668 131.596 46.4668C131.951 46.4668 132.272 46.5169 132.56 46.6172C132.851 46.7129 133.1 46.8701 133.305 47.0889C133.514 47.3076 133.674 47.5924 133.783 47.9434C133.893 48.2897 133.947 48.7158 133.947 49.2217V54H132.293V49.2148C132.293 48.8594 132.241 48.5791 132.136 48.374C132.035 48.1644 131.887 48.0163 131.691 47.9297C131.5 47.8385 131.261 47.793 130.974 47.793C130.691 47.793 130.438 47.8522 130.215 47.9707C129.992 48.0892 129.802 48.251 129.647 48.4561C129.497 48.6611 129.381 48.8981 129.299 49.167C129.217 49.4359 129.176 49.723 129.176 50.0283ZM143.565 52.2568V46.6035H145.22V54H143.661L143.565 52.2568ZM143.798 50.7188L144.352 50.7051C144.352 51.2018 144.297 51.6598 144.188 52.0791C144.078 52.4938 143.91 52.8561 143.682 53.166C143.454 53.4714 143.162 53.7106 142.807 53.8838C142.451 54.0524 142.025 54.1367 141.528 54.1367C141.168 54.1367 140.838 54.0843 140.537 53.9795C140.236 53.8747 139.977 53.7129 139.758 53.4941C139.544 53.2754 139.377 52.9906 139.259 52.6396C139.14 52.2887 139.081 51.8695 139.081 51.3818V46.6035H140.729V51.3955C140.729 51.6644 140.76 51.89 140.824 52.0723C140.888 52.25 140.975 52.3936 141.084 52.5029C141.193 52.6123 141.321 52.6898 141.467 52.7354C141.613 52.7809 141.768 52.8037 141.932 52.8037C142.401 52.8037 142.77 52.7126 143.039 52.5303C143.312 52.3434 143.506 52.0928 143.62 51.7783C143.739 51.4639 143.798 51.1107 143.798 50.7188ZM148.562 48.0254V56.8438H146.915V46.6035H148.433L148.562 48.0254ZM153.382 50.2334V50.377C153.382 50.9147 153.318 51.4137 153.19 51.874C153.067 52.3298 152.883 52.7285 152.637 53.0703C152.395 53.4076 152.097 53.6696 151.741 53.8564C151.386 54.0433 150.976 54.1367 150.511 54.1367C150.05 54.1367 149.647 54.0524 149.301 53.8838C148.959 53.7106 148.67 53.4668 148.433 53.1523C148.196 52.8379 148.004 52.4688 147.858 52.0449C147.717 51.6165 147.617 51.1471 147.558 50.6367V50.083C147.617 49.5407 147.717 49.0485 147.858 48.6064C148.004 48.1644 148.196 47.7839 148.433 47.4648C148.67 47.1458 148.959 46.8997 149.301 46.7266C149.643 46.5534 150.041 46.4668 150.497 46.4668C150.962 46.4668 151.374 46.5579 151.734 46.7402C152.094 46.918 152.397 47.1732 152.644 47.5059C152.89 47.834 153.074 48.2305 153.197 48.6953C153.32 49.1556 153.382 49.6683 153.382 50.2334ZM151.734 50.377V50.2334C151.734 49.8916 151.702 49.5749 151.639 49.2832C151.575 48.987 151.475 48.7272 151.338 48.5039C151.201 48.2806 151.026 48.1074 150.812 47.9844C150.602 47.8568 150.349 47.793 150.053 47.793C149.761 47.793 149.51 47.8431 149.301 47.9434C149.091 48.0391 148.916 48.1735 148.774 48.3467C148.633 48.5199 148.524 48.7227 148.446 48.9551C148.369 49.1829 148.314 49.4313 148.282 49.7002V51.0264C148.337 51.3545 148.43 51.6553 148.562 51.9287C148.695 52.2021 148.882 52.4209 149.123 52.585C149.369 52.7445 149.684 52.8242 150.066 52.8242C150.363 52.8242 150.616 52.7604 150.825 52.6328C151.035 52.5052 151.206 52.3298 151.338 52.1064C151.475 51.8786 151.575 51.6165 151.639 51.3203C151.702 51.0241 151.734 50.7096 151.734 50.377ZM160.279 52.3594L161.988 46.6035H163.041L162.754 48.3262L161.031 54H160.088L160.279 52.3594ZM159.274 46.6035L160.607 52.3867L160.717 54H159.664L157.661 46.6035H159.274ZM164.641 52.3184L165.933 46.6035H167.539L165.543 54H164.49L164.641 52.3184ZM163.219 46.6035L164.907 52.291L165.119 54H164.176L162.433 48.3193L162.146 46.6035H163.219ZM170.424 46.6035V54H168.77V46.6035H170.424ZM168.66 44.6621C168.66 44.4115 168.742 44.2041 168.906 44.04C169.075 43.8714 169.307 43.7871 169.604 43.7871C169.895 43.7871 170.125 43.8714 170.294 44.04C170.463 44.2041 170.547 44.4115 170.547 44.6621C170.547 44.9082 170.463 45.1133 170.294 45.2773C170.125 45.4414 169.895 45.5234 169.604 45.5234C169.307 45.5234 169.075 45.4414 168.906 45.2773C168.742 45.1133 168.66 44.9082 168.66 44.6621ZM175.619 46.6035V47.8066H171.449V46.6035H175.619ZM172.652 44.792H174.3V51.9561C174.3 52.1839 174.332 52.3594 174.396 52.4824C174.464 52.6009 174.557 52.6807 174.676 52.7217C174.794 52.7627 174.933 52.7832 175.093 52.7832C175.207 52.7832 175.316 52.7764 175.421 52.7627C175.526 52.749 175.61 52.7354 175.674 52.7217L175.681 53.9795C175.544 54.0205 175.384 54.057 175.202 54.0889C175.024 54.1208 174.819 54.1367 174.587 54.1367C174.209 54.1367 173.874 54.0706 173.582 53.9385C173.29 53.8018 173.062 53.5807 172.898 53.2754C172.734 52.9701 172.652 52.5645 172.652 52.0586V44.792ZM178.518 43.5V54H176.877V43.5H178.518ZM178.23 50.0283L177.697 50.0215C177.702 49.5111 177.772 49.0394 177.909 48.6064C178.05 48.1735 178.246 47.7975 178.497 47.4785C178.752 47.1549 179.058 46.9066 179.413 46.7334C179.769 46.5557 180.163 46.4668 180.596 46.4668C180.96 46.4668 181.288 46.5169 181.58 46.6172C181.876 46.7174 182.132 46.8792 182.346 47.1025C182.56 47.3213 182.722 47.6084 182.831 47.9639C182.945 48.3148 183.002 48.7432 183.002 49.249V54H181.348V49.2354C181.348 48.8799 181.295 48.5973 181.19 48.3877C181.09 48.1781 180.942 48.0277 180.746 47.9365C180.55 47.8408 180.311 47.793 180.028 47.793C179.732 47.793 179.47 47.8522 179.242 47.9707C179.019 48.0892 178.832 48.251 178.682 48.4561C178.531 48.6611 178.417 48.8981 178.34 49.167C178.267 49.4359 178.23 49.723 178.23 50.0283ZM195.963 48.9141V52.7148C195.822 52.9017 195.601 53.1068 195.3 53.3301C195.004 53.5488 194.609 53.738 194.117 53.8975C193.625 54.057 193.012 54.1367 192.278 54.1367C191.654 54.1367 191.082 54.0319 190.562 53.8223C190.043 53.6081 189.594 53.2959 189.216 52.8857C188.842 52.4756 188.553 51.9766 188.348 51.3887C188.143 50.7962 188.04 50.1217 188.04 49.3652V48.6748C188.04 47.9229 188.133 47.2529 188.32 46.665C188.512 46.0726 188.785 45.5713 189.141 45.1611C189.496 44.751 189.924 44.4411 190.426 44.2314C190.932 44.0173 191.504 43.9102 192.142 43.9102C192.957 43.9102 193.632 44.0469 194.165 44.3203C194.703 44.5892 195.118 44.9629 195.409 45.4414C195.701 45.9199 195.885 46.4668 195.963 47.082H194.281C194.227 46.7357 194.119 46.4258 193.96 46.1523C193.805 45.8789 193.582 45.6647 193.29 45.5098C193.003 45.3503 192.629 45.2705 192.169 45.2705C191.772 45.2705 191.424 45.3457 191.123 45.4961C190.822 45.6465 190.572 45.8675 190.371 46.1592C190.175 46.4508 190.027 46.8063 189.927 47.2256C189.826 47.6449 189.776 48.1234 189.776 48.6611V49.3652C189.776 49.9121 189.833 50.3975 189.947 50.8213C190.066 51.2451 190.234 51.6029 190.453 51.8945C190.676 52.1862 190.948 52.4072 191.267 52.5576C191.586 52.7035 191.946 52.7764 192.347 52.7764C192.739 52.7764 193.06 52.7445 193.311 52.6807C193.561 52.6123 193.759 52.5326 193.905 52.4414C194.056 52.3457 194.172 52.2546 194.254 52.168V50.1924H192.183V48.9141H195.963ZM197.385 50.3838V50.2266C197.385 49.6934 197.462 49.1989 197.617 48.7432C197.772 48.2829 197.995 47.8841 198.287 47.5469C198.583 47.2051 198.943 46.9408 199.367 46.7539C199.796 46.5625 200.279 46.4668 200.816 46.4668C201.359 46.4668 201.842 46.5625 202.266 46.7539C202.694 46.9408 203.056 47.2051 203.353 47.5469C203.649 47.8841 203.874 48.2829 204.029 48.7432C204.184 49.1989 204.262 49.6934 204.262 50.2266V50.3838C204.262 50.917 204.184 51.4115 204.029 51.8672C203.874 52.3229 203.649 52.7217 203.353 53.0635C203.056 53.4007 202.696 53.665 202.272 53.8564C201.849 54.0433 201.368 54.1367 200.83 54.1367C200.288 54.1367 199.802 54.0433 199.374 53.8564C198.95 53.665 198.59 53.4007 198.294 53.0635C197.998 52.7217 197.772 52.3229 197.617 51.8672C197.462 51.4115 197.385 50.917 197.385 50.3838ZM199.032 50.2266V50.3838C199.032 50.7165 199.066 51.0309 199.135 51.3271C199.203 51.6234 199.31 51.8831 199.456 52.1064C199.602 52.3298 199.789 52.5052 200.017 52.6328C200.244 52.7604 200.516 52.8242 200.83 52.8242C201.135 52.8242 201.4 52.7604 201.623 52.6328C201.851 52.5052 202.038 52.3298 202.184 52.1064C202.329 51.8831 202.437 51.6234 202.505 51.3271C202.578 51.0309 202.614 50.7165 202.614 50.3838V50.2266C202.614 49.8984 202.578 49.5885 202.505 49.2969C202.437 49.0007 202.327 48.7386 202.177 48.5107C202.031 48.2829 201.844 48.1051 201.616 47.9775C201.393 47.8454 201.126 47.7793 200.816 47.7793C200.507 47.7793 200.238 47.8454 200.01 47.9775C199.786 48.1051 199.602 48.2829 199.456 48.5107C199.31 48.7386 199.203 49.0007 199.135 49.2969C199.066 49.5885 199.032 49.8984 199.032 50.2266ZM205.328 50.3838V50.2266C205.328 49.6934 205.406 49.1989 205.561 48.7432C205.715 48.2829 205.939 47.8841 206.23 47.5469C206.527 47.2051 206.887 46.9408 207.311 46.7539C207.739 46.5625 208.222 46.4668 208.76 46.4668C209.302 46.4668 209.785 46.5625 210.209 46.7539C210.637 46.9408 211 47.2051 211.296 47.5469C211.592 47.8841 211.818 48.2829 211.973 48.7432C212.128 49.1989 212.205 49.6934 212.205 50.2266V50.3838C212.205 50.917 212.128 51.4115 211.973 51.8672C211.818 52.3229 211.592 52.7217 211.296 53.0635C211 53.4007 210.64 53.665 210.216 53.8564C209.792 54.0433 209.311 54.1367 208.773 54.1367C208.231 54.1367 207.746 54.0433 207.317 53.8564C206.894 53.665 206.534 53.4007 206.237 53.0635C205.941 52.7217 205.715 52.3229 205.561 51.8672C205.406 51.4115 205.328 50.917 205.328 50.3838ZM206.976 50.2266V50.3838C206.976 50.7165 207.01 51.0309 207.078 51.3271C207.146 51.6234 207.254 51.8831 207.399 52.1064C207.545 52.3298 207.732 52.5052 207.96 52.6328C208.188 52.7604 208.459 52.8242 208.773 52.8242C209.079 52.8242 209.343 52.7604 209.566 52.6328C209.794 52.5052 209.981 52.3298 210.127 52.1064C210.273 51.8831 210.38 51.6234 210.448 51.3271C210.521 51.0309 210.558 50.7165 210.558 50.3838V50.2266C210.558 49.8984 210.521 49.5885 210.448 49.2969C210.38 49.0007 210.271 48.7386 210.12 48.5107C209.974 48.2829 209.787 48.1051 209.56 47.9775C209.336 47.8454 209.07 47.7793 208.76 47.7793C208.45 47.7793 208.181 47.8454 207.953 47.9775C207.73 48.1051 207.545 48.2829 207.399 48.5107C207.254 48.7386 207.146 49.0007 207.078 49.2969C207.01 49.5885 206.976 49.8984 206.976 50.2266ZM218.323 46.6035H219.82V53.7949C219.82 54.4603 219.679 55.0254 219.396 55.4902C219.114 55.9551 218.72 56.3083 218.214 56.5498C217.708 56.7959 217.122 56.9189 216.457 56.9189C216.174 56.9189 215.86 56.8779 215.514 56.7959C215.172 56.7139 214.839 56.5817 214.516 56.3994C214.197 56.2217 213.93 55.987 213.716 55.6953L214.488 54.7246C214.753 55.0391 215.044 55.2692 215.363 55.415C215.682 55.5609 216.017 55.6338 216.368 55.6338C216.746 55.6338 217.068 55.5632 217.332 55.4219C217.601 55.2852 217.808 55.0824 217.954 54.8135C218.1 54.5446 218.173 54.2165 218.173 53.8291V48.2783L218.323 46.6035ZM213.299 50.3838V50.2402C213.299 49.6797 213.367 49.1693 213.504 48.709C213.641 48.2441 213.837 47.8454 214.092 47.5127C214.347 47.1755 214.657 46.918 215.021 46.7402C215.386 46.5579 215.799 46.4668 216.259 46.4668C216.737 46.4668 217.145 46.5534 217.482 46.7266C217.824 46.8997 218.109 47.1481 218.337 47.4717C218.565 47.7907 218.743 48.1735 218.87 48.6201C219.002 49.0622 219.1 49.5544 219.164 50.0967V50.5547C219.105 51.0833 219.005 51.5664 218.863 52.0039C218.722 52.4414 218.535 52.8197 218.303 53.1387C218.07 53.4577 217.783 53.7038 217.441 53.877C217.104 54.0501 216.705 54.1367 216.245 54.1367C215.794 54.1367 215.386 54.0433 215.021 53.8564C214.661 53.6696 214.352 53.4076 214.092 53.0703C213.837 52.7331 213.641 52.3366 213.504 51.8809C213.367 51.4206 213.299 50.9215 213.299 50.3838ZM214.946 50.2402V50.3838C214.946 50.721 214.978 51.0355 215.042 51.3271C215.11 51.6188 215.213 51.8763 215.35 52.0996C215.491 52.3184 215.669 52.4915 215.883 52.6191C216.102 52.7422 216.359 52.8037 216.655 52.8037C217.043 52.8037 217.359 52.7217 217.605 52.5576C217.856 52.3936 218.048 52.1725 218.18 51.8945C218.316 51.612 218.412 51.2975 218.467 50.9512V49.7139C218.439 49.445 218.382 49.1943 218.296 48.9619C218.214 48.7295 218.102 48.5267 217.961 48.3535C217.82 48.1758 217.642 48.0391 217.428 47.9434C217.214 47.8431 216.961 47.793 216.669 47.793C216.373 47.793 216.115 47.8568 215.896 47.9844C215.678 48.112 215.498 48.2874 215.356 48.5107C215.22 48.734 215.117 48.9938 215.049 49.29C214.98 49.5863 214.946 49.903 214.946 50.2402ZM223.293 43.5V54H221.639V43.5H223.293ZM228.358 54.1367C227.812 54.1367 227.317 54.0479 226.875 53.8701C226.438 53.6878 226.064 53.4349 225.754 53.1113C225.449 52.7878 225.214 52.4072 225.05 51.9697C224.886 51.5322 224.804 51.0605 224.804 50.5547V50.2812C224.804 49.7025 224.888 49.1784 225.057 48.709C225.225 48.2396 225.46 47.8385 225.761 47.5059C226.062 47.1686 226.417 46.9111 226.827 46.7334C227.237 46.5557 227.682 46.4668 228.16 46.4668C228.689 46.4668 229.151 46.5557 229.548 46.7334C229.944 46.9111 230.272 47.1618 230.532 47.4854C230.797 47.8044 230.993 48.1849 231.12 48.627C231.252 49.069 231.318 49.5566 231.318 50.0898V50.7939H225.604V49.6113H229.691V49.4814C229.682 49.1852 229.623 48.9072 229.514 48.6475C229.409 48.3877 229.247 48.1781 229.028 48.0186C228.81 47.859 228.518 47.7793 228.153 47.7793C227.88 47.7793 227.636 47.8385 227.422 47.957C227.212 48.071 227.037 48.2373 226.896 48.4561C226.754 48.6748 226.645 48.9391 226.567 49.249C226.494 49.5544 226.458 49.8984 226.458 50.2812V50.5547C226.458 50.8783 226.501 51.179 226.588 51.457C226.679 51.7305 226.811 51.9697 226.984 52.1748C227.158 52.3799 227.367 52.5417 227.613 52.6602C227.859 52.7741 228.14 52.8311 228.454 52.8311C228.851 52.8311 229.204 52.7513 229.514 52.5918C229.824 52.4323 230.092 52.2067 230.32 51.915L231.188 52.7559C231.029 52.9883 230.822 53.2116 230.566 53.4258C230.311 53.6354 229.999 53.8063 229.63 53.9385C229.265 54.0706 228.841 54.1367 228.358 54.1367Z" fill="#191E3E"/>
</g>
<defs>
<filter id="filter0_d_71_8235" x="-12.0559" y="0.149648" width="334.112" height="104.112" filterUnits="userSpaceOnUse" color-interpolation-filters="sRGB">
<feFlood flood-opacity="0" result="BackgroundImageFix"/>
<feColorMatrix in="SourceAlpha" type="matrix" values="0 0 0 0 0 0 0 0 0 0 0 0 0 0 0 0 0 0 127 0" result="hardAlpha"/>
<feOffset dy="3.20559"/>
<feGaussianBlur stdDeviation="16.028"/>
<feComposite in2="hardAlpha" operator="out"/>
<feColorMatrix type="matrix" values="0 0 0 0 0 0 0 0 0 0 0 0 0 0 0 0 0 0 0.08 0"/>
<feBlend mode="normal" in2="BackgroundImageFix" result="effect1_dropShadow_71_8235"/>
<feBlend mode="normal" in="SourceGraphic" in2="effect1_dropShadow_71_8235" result="shape"/>
</filter>
</defs>
</svg>
