<svg xmlns="http://www.w3.org/2000/svg" width="36" height="36" viewBox="0 0 36 36" fill="none">
<path d="M8 11.2764V23.9282C8 25.733 9.46296 27.2045 11.2678 27.2045H17.29C16.5714 26.1181 16.1865 24.8435 16.1865 23.509C16.1865 19.7793 19.2233 16.7424 22.9529 16.7424C23.4934 16.7424 23.6394 16.8024 23.7229 16.8024V11.2764C23.7229 9.47131 22.2516 8 20.4551 8H11.2678C9.46296 8 8 9.47131 8 11.2764ZM13.7656 23.0642H12.0292C11.5587 23.0642 11.1738 22.6793 11.1738 22.2087C11.1738 21.7296 11.5587 21.3533 12.0292 21.3533H13.7656C14.2361 21.3533 14.621 21.7296 14.621 22.2087C14.621 22.6793 14.2361 23.0642 13.7656 23.0642ZM14.6724 18.4533H12.0292C11.5587 18.4533 11.1738 18.077 11.1738 17.5979C11.1738 17.1276 11.5587 16.7424 12.0292 16.7424H14.6724C15.1429 16.7424 15.5278 17.1276 15.5278 17.5979C15.5278 18.077 15.1429 18.4533 14.6724 18.4533ZM12.0292 12.1403H19.6853C20.1558 12.1403 20.5407 12.5252 20.5407 12.9958C20.5407 13.4749 20.1558 13.8512 19.6853 13.8512H12.0292C11.5587 13.8512 11.1738 13.4749 11.1738 12.9958C11.1738 12.5252 11.5587 12.1403 12.0292 12.1403Z" fill="#8F90A6"/>
<path d="M22.9528 18.4533C20.1558 18.4533 17.8973 20.7032 17.8973 23.509C17.8973 26.3893 20.261 28.5474 22.9528 28.5474C25.733 28.5474 28 26.2892 28 23.509C28 20.6825 25.6981 18.4533 22.9528 18.4533ZM24.2874 24.9375C23.9446 25.2802 23.4155 25.2803 23.0727 24.9375L22.2601 24.1249C22.0974 23.9624 22.012 23.7486 22.012 23.5176V21.7896C22.012 21.3105 22.3883 20.9342 22.8674 20.9342C23.3379 20.9342 23.7228 21.3105 23.7228 21.7896V23.1667L24.2874 23.7314C24.6211 24.065 24.6211 24.604 24.2874 24.9375Z" fill="#8F90A6"/>
</svg>
